<svg width="778" height="778" viewBox="0 0 778 778" fill="none" xmlns="http://www.w3.org/2000/svg">
<rect x="321.375" y="772" width="550" height="550" rx="20" transform="rotate(-125 321.375 772)" fill="#FF9900"/>
<rect x="255.894" y="754.455" width="550" height="550" rx="20" transform="rotate(-115 255.894 754.455)" fill="#FF9900"/>
<rect x="194.455" y="725.805" width="550" height="550" rx="20" transform="rotate(-105 194.455 725.805)" fill="#FF9900"/>
<rect x="138.923" y="686.921" width="550" height="550" rx="20" transform="rotate(-95 138.923 686.921)" fill="#FF9900"/>
<rect x="90.9873" y="638.986" width="550" height="550" rx="20" transform="rotate(-85 90.9873 638.986)" fill="#FF9900"/>
<rect x="52.104" y="583.454" width="550" height="550" rx="20" transform="rotate(-75 52.104 583.454)" fill="#FF9900"/>
<rect x="23.4541" y="522.015" width="550" height="550" rx="20" transform="rotate(-65 23.4541 522.015)" fill="#FF9900"/>
<rect x="5.9082" y="456.533" width="550" height="550" rx="20" transform="rotate(-55 5.9082 456.533)" fill="#FF9900"/>
<rect y="389" width="550" height="550" rx="20" transform="rotate(-45 0 389)" fill="#FF9900"/>
</svg>
